<svg xmlns="http://www.w3.org/2000/svg" xmlns:xlink="http://www.w3.org/1999/xlink" xml:space="preserve" width="100px" height="100px" style="shape-rendering:geometricPrecision; text-rendering:geometricPrecision; image-rendering:optimizeQuality; fill-rule:evenodd; clip-rule:evenodd" viewBox="0 0 100 100">
 <defs>
  <style type="text/css">
   
    .fil0 {fill:#1F1A17}
   
  </style>
 </defs>
 <g id="Layer_x0020_1">
  <metadata id="CorelCorpID_0Corel-Layer"/>
  <path class="fil0" d="M25.9722 48.7065c1.2898,0 2.5337,-0.1964 3.7032,-0.5618 0.9015,-0.5756 1.8847,-1.0346 2.9275,-1.354 2.6062,-1.6488 4.557,-4.2394 5.3731,-7.2936l-0.1304 -0.1285c-3.392,-3.4003 -5.4924,-8.0867 -5.4924,-13.2559 0,-0.1634 0.0019,-0.3259 0.0065,-0.4875 -1.8663,-1.1218 -4.0521,-1.7662 -6.3875,-1.7662 -6.8602,0 -12.4242,5.5631 -12.4242,12.4242 0,6.8602 5.564,12.4233 12.4242,12.4233zm59.1561 3.9135l-8.4631 0c0.896,1.6735 1.4055,3.5829 1.4055,5.6035l0 7.8654 0 0.9575 0 0.0551 0 3.3709 0 20.5559 3.9859 0c4.1815,0 7.9435,-1.8902 10.4717,-4.859l0 -26.1484c0,-4.0704 -3.3296,-7.4009 -7.4,-7.4009zm-15.2765 -26.5073c0,5.1757 -2.1004,9.8639 -5.4998,13.2559 -0.5746,0.5738 -1.186,1.1117 -1.8304,1.6074 0.8684,2.127 2.3106,3.9603 4.1328,5.3061 2.4869,0.1111 4.7819,0.9905 6.6509,2.4033l0.7225 0.0211c6.8602,0 12.4242,-5.5631 12.4242,-12.4233 0,-6.8611 -5.564,-12.4242 -12.4242,-12.4242 -1.4881,0 -2.9147,0.2616 -4.2366,0.7408 0.0404,0.4994 0.0606,1.0034 0.0606,1.5129zm-35.5561 -0.3351c0,9.2801 7.5258,16.8059 16.8059,16.8059 9.281,0 16.8077,-7.5258 16.8077,-16.8059 0,-9.281 -7.5267,-16.8068 -16.8077,-16.8068 -9.2801,0 -16.8059,7.5258 -16.8059,16.8068zm1.7901 22.1c-5.5071,0 -10.0108,4.5037 -10.0108,10.0108l0 20.3035 0 4.1576 0 8.6797 50.0532 0 0 -20.8919 0 -4.3835 0 -7.8654c0,-5.5062 -4.5037,-10.0108 -10.0099,-10.0108l-30.0325 0zm-10.5469 4.7424l-10.6672 0c-4.0713,0 -7.4,3.3296 -7.4,7.4009l0 26.2503c2.5273,2.9101 6.2498,4.7571 10.3835,4.7571l6.2773 0 0 -8.3437 0 -0.6941 0 -0.3828 0 -3.0808 0 -20.3034c0,-2.0206 0.5095,-3.9291 1.4064,-5.6035z"/>
 </g>
</svg>